# xmcd
#
# Track frame offsets:
#	150
#	12224
#	30066
#	47259
#	62458
#	81292
#	95991
#	111625
#	127586
#	146481
#	163999
#	178228
#	195546
#	211593
#	228934
#	242000
#	256246
#	270229
#
# Disc length: 3845
#
# Revision: 5
# Processed by: cddbd v1.5.1PL0 Copyright (c) Steve Scherf et al.
# Submitted via: FreeRIP 2.60 
# Normalized: r4:DSETVAR1,TDELIM( - )
#
DISCID=e40f0312
DTITLE=Various Artist - Promo Only Country Radio - November 2001
DYEAR=2001
DGENRE=Country
TTITLE0=Alan Jackson - It's Alright To Be A Red Neck
TTITLE1=Martina Mcbride - Blessed
TTITLE2=Brooks and Dunn - The Long Goodbye
TTITLE3=Trisha Yearwood Feat. Don Henley - Inside Out
TTITLE4=Deryl Dodd - One Ride In Vegas
TTITLE5=Lee Ann Womack - Does My Ring Burn Your Finger
TTITLE6=Phil Vassar - That's When I Love You
TTITLE7=Tammy Cochran - I Cry
TTITLE8=Mark Mcguinn - She Doesn't Dance
TTITLE9=Daisy Dern - Getting Back To You
TTITLE10=The Great Divide - Wild Horses
TTITLE11=Kevin Sharp - Beautiful People
TTITLE12=Kenny Rogers - Homeland
TTITLE13=Kristin Garner - Singing To The Scarecrow
TTITLE14=Emerson Drive - I Should Be Sleeping
TTITLE15=Ronnie Mcdowell - Don't Mess With America
TTITLE16=The Tractors - Fast Girl
TTITLE17=Darryl Purpose - Late For Dinner
EXTD=
EXTT0=
EXTT1=
EXTT2=
EXTT3=
EXTT4=
EXTT5=
EXTT6=
EXTT7=
EXTT8=
EXTT9=
EXTT10=
EXTT11=
EXTT12=
EXTT13=
EXTT14=
EXTT15=
EXTT16=
EXTT17=
PLAYORDER=
